<svg xmlns="http://www.w3.org/2000/svg" viewBox="8 448 550 623" width="550" height="623">
  <path fill="#D4744A" d="M419.442 746.657C424.571 748.417 445.845 788.536 448.3 795.015C437.741 807.876 418.196 826.452 405.916 838.014C353.564 887.304 303.208 927.26 232.529 945.143C243.67 972.563 274.417 987.95 303.132 983.447C322.743 980.371 336.737 971.2 348.421 955.498C369.654 961.466 382.339 963.891 404.48 964.416C402.734 969.942 400.386 974.481 397.44 979.481C355.897 1050 250.105 1055.69 198.249 993.933C194.354 989.295 191.19 984.131 187.931 979.033C182.112 969.437 179.694 961.733 176.557 951.235C154.517 950.237 135.54 946.933 115.663 936.478C89.5554 922.983 69.8993 899.644 61.0408 871.622C48.7846 831.883 64.4564 786.19 83.1195 750.792C95.8004 767.216 105.63 781.42 120.552 796.345C115.147 810.649 110.136 832.876 111.715 847.573C116.244 889.724 160.189 901.226 196.026 897.46C266.875 890.013 322.572 841.581 372.806 795.235C388.292 780.947 406.071 762.934 419.442 746.657Z"/>
  <path fill="#D4744A" d="M361.59 596.935L363.08 596.997C372.912 602.845 394.455 622.459 403.135 630.384C438.658 662.819 471.928 697.38 495.445 739.707C503.454 752.64 508.946 765.517 514.893 779.367C542.628 843.946 527.284 915.384 456.353 942.367C408.785 960.462 357.827 948.811 312.321 928.1C316.357 925.066 321.767 921.995 326.166 919.343C341.493 909.147 354.71 900.431 369.163 888.776C384.096 876.733 397.324 863.128 411.821 851.115C412.977 865.454 412.77 883.3 412.612 897.738C414.121 897.551 415.628 897.352 417.133 897.141C452.891 892.087 481.305 867.438 472.967 829.375C453.546 740.72 374.581 671.75 305.526 620.505C319.787 610.464 344.914 601.335 361.59 596.935Z"/>
  <path fill="#D4744A" d="M387.441 525.265C391.184 524.698 396.87 524.891 400.81 524.814C453.386 523.787 508.035 548.545 524.09 602.384C536.973 645.585 522.366 687.737 501.982 725.943C487.846 704.465 482.064 695.515 465.634 675.675C478.955 645.834 479.794 603.505 446.44 587.277C404.588 566.914 348.853 582.976 309.757 602.778C258.36 629.796 200.309 679.746 165.863 726.684C156.403 716.075 141.403 691.842 135.448 678.839C137.231 676.627 139.233 674.337 141.082 672.166C164.5 644.68 190.735 619.726 219.358 597.713C271.419 557.291 320.808 530.62 387.441 525.265Z"/>
  <path fill="#D4744A" d="M171.156 525.901L172.057 525.951C172.73 528.023 171.374 530.954 170.569 533.023C164.766 547.937 162.463 563.939 160.336 579.72C144.95 583.966 133.116 588.092 122.457 600.787C112.912 612.154 109.589 629.187 111.659 643.612C123.355 725.118 220.016 804.711 279.516 853.21C264.123 864.209 243.614 872.288 225.759 878.197L224.394 878.339C221.396 877.116 216.718 872.895 214.172 870.664C196.119 854.666 178.517 838.167 161.386 821.186C149.055 809.017 137.32 797.179 125.593 784.16C75.0146 728.007 23.1978 632.79 82.3942 564.494C104.141 539.404 138.504 527.984 171.156 525.901Z"/>
  <path fill="#CF1D1B" d="M292.665 707.91C301.671 689.259 315.869 674.3 338.113 674.978C349.072 675.363 359.437 680.058 366.954 688.043C380.188 702.119 380.572 725.227 371.1 741.433C361.846 757.268 346.505 770.206 333.11 782.686C318.471 795.877 305.968 809.875 292.573 824.13C282.631 814.172 272.399 802.641 262.118 792.257C243.884 772.896 212.63 753.355 207.959 725.496C203.709 700.145 217.942 679.054 243.582 675.17C268.312 672.812 281.559 688.259 292.665 707.91Z"/>
  <path fill="#D4744A" d="M287.123 464.006C295.155 463.218 308.285 464.316 316.03 465.769C347.411 471.656 370.88 485.695 389.043 511.796C365.462 513.709 346.311 516.643 323.758 524.586C315.345 519.309 306.974 516.598 297.117 516.217C276.291 515.413 263.555 520.947 248.471 534.659C256.749 537.24 267.515 541.118 274.735 545.622C267.715 548.754 256.907 555.595 250.164 559.673C219.713 579.815 199.92 596.797 172.958 620.314L172.922 619.848C167.015 540.636 198.888 470.44 287.123 464.006Z"/>
  <path fill="#D4744A" d="M173.148 850.839C175.673 851.784 204.451 878.678 206.667 881.976L206.05 882.905C193.985 884.015 184.78 884.572 172.659 884.591C172.601 873.338 172.764 862.085 173.148 850.839Z"/>
  <path fill="#D4744A" d="M403.578 590.903C406.239 590.776 409.907 591.032 412.64 591.141L412.9 621.709C409.336 619.141 404.395 614.382 401.015 611.307C394.057 605.187 387.004 599.174 379.86 593.271C387.849 591.674 395.493 591.259 403.578 590.903Z"/>
</svg>
